<?xml version="1.0" encoding="UTF-8"?> <svg xmlns="http://www.w3.org/2000/svg" version="1.2" viewBox="0 0 146 139" width="146" height="139"><title>Enterprise Mentoring Software _ Guider-header-svg</title><defs><linearGradient id="g1" x1="73.6" y1="6.1" x2="73.6" y2="132.3" gradientUnits="userSpaceOnUse"><stop offset="0" stop-color="#3d3bc4"></stop><stop offset="1" stop-color="#67ccfe"></stop></linearGradient></defs><style> .s0 { fill: url(#g1) } .s1 { fill: #fefefe } </style><path id="Layer" fill-rule="evenodd" class="s0" d="m44.2 5.8h58.8c18.6 0 33.9 15.2 33.9 33.9v58.8c0 18.6-15.2 33.9-33.9 33.9h-58.8c-18.6 0-33.9-15.2-33.9-33.9v-58.8c0-18.7 15.2-33.9 33.9-33.9z"></path><path id="Layer" fill-rule="evenodd" class="s1" d="m68.2 68.4c1.6 0.7 3.4 1.1 5.3 1.1 1.9 0 3.7-0.4 5.3-1.1 4.5-2 7.7-6.4 7.8-11.6l9.8 9.9 2.2 2.2v12.7c0 13.8-11.3 25-25 25-12.7 0-23.2-9.6-24.8-21.8h12.3c1.4 5.6 6.6 9.8 12.6 9.8 7.2 0 13.1-5.9 13.1-13.1v-3.7c-3.8 2.4-8.3 3.7-13.1 3.7-4.8 0-9.3-1.4-13.1-3.7-7.1-4.4-11.9-12.3-11.9-21.3 0-13 9.9-23.7 22.6-24.9h5c6.8 0.6 11.3 3.7 16.3 8.6l6 5.9v16.9l-6.6-6.5c-3.1-3.1-6.9-7.4-10.1-10.1-2.3-1.9-5.2-3-8.3-3-7.3 0-13.1 5.9-13.1 13.1 0 5.3 3.2 9.9 7.7 11.9z"></path><path id="Layer" fill-rule="evenodd" class="s1" d="m98.6 31.6v9.5l-10.1-9.5z"></path></svg> 